<svg xmlns="http://www.w3.org/2000/svg" viewBox="0 0 780 520" font-family="Arial, sans-serif" font-size="12">
  <defs>
    <marker id="a" markerWidth="10" markerHeight="7" refX="10" refY="3.5" orient="auto">
      <polygon points="0 0, 10 3.5, 0 7" fill="#555"/>
    </marker>
  </defs>

  <rect width="780" height="520" fill="#f8f9fa" rx="8"/>
  <text x="390" y="28" text-anchor="middle" font-size="17" font-weight="bold" fill="#333">LLM Agent Query Workflow</text>

  <!-- User Query -->
  <rect x="300" y="50" width="180" height="35" rx="6" fill="#e3f2fd" stroke="#1565c0" stroke-width="1.5"/>
  <text x="390" y="73" text-anchor="middle" font-weight="bold" fill="#0d47a1">User Query</text>
  <line x1="390" y1="85" x2="390" y2="108" stroke="#555" stroke-width="1.2" marker-end="url(#a)"/>

  <!-- LLM Runner -->
  <rect x="280" y="110" width="220" height="35" rx="6" fill="#e1bee7" stroke="#7b1fa2" stroke-width="1.5"/>
  <text x="390" y="133" text-anchor="middle" font-weight="bold" fill="#4a148c">POST /run (llm_runner.py)</text>
  <line x1="390" y1="145" x2="390" y2="168" stroke="#555" stroke-width="1.2" marker-end="url(#a)"/>

  <!-- Coordinator -->
  <rect x="250" y="170" width="280" height="45" rx="6" fill="#f3e5f5" stroke="#7b1fa2" stroke-width="2"/>
  <text x="390" y="190" text-anchor="middle" font-weight="bold" fill="#4a148c">Coordinator Agent</text>
  <text x="390" y="205" text-anchor="middle" fill="#666" font-size="10">(GlobalHealthRouter — classifies query type)</text>

  <!-- Three paths -->
  <!-- Path A: General -->
  <line x1="310" y1="215" x2="120" y2="260" stroke="#2e7d32" stroke-width="1.5" marker-end="url(#a)"/>
  <text x="180" y="238" fill="#2e7d32" font-size="10" font-weight="bold">Rule A</text>

  <rect x="30" y="262" width="180" height="55" rx="6" fill="#c8e6c9" stroke="#2e7d32" stroke-width="1.5"/>
  <text x="120" y="282" text-anchor="middle" font-weight="bold" fill="#1b5e20">Direct LLM Answer</text>
  <text x="120" y="300" text-anchor="middle" fill="#555" font-size="10">General health knowledge</text>
  <text x="120" y="312" text-anchor="middle" fill="#888" font-size="9">rag=false, mcp=false</text>

  <!-- Path B: SQL -->
  <line x1="390" y1="215" x2="390" y2="260" stroke="#e65100" stroke-width="1.5" marker-end="url(#a)"/>
  <text x="400" y="242" fill="#e65100" font-size="10" font-weight="bold">Rule B</text>

  <rect x="280" y="262" width="220" height="40" rx="6" fill="#fff3e0" stroke="#e65100" stroke-width="1.5"/>
  <text x="390" y="287" text-anchor="middle" font-weight="bold" fill="#bf360c">SQLAnalyst Agent</text>

  <!-- SQL Steps -->
  <line x1="390" y1="302" x2="390" y2="318" stroke="#555" stroke-width="1.2" marker-end="url(#a)"/>

  <rect x="260" y="320" width="260" height="130" rx="6" fill="#fff8e1" stroke="#f9a825" stroke-width="1"/>
  <text x="275" y="340" font-weight="bold" fill="#f57f17" font-size="11">MCP Tool Calls:</text>
  <text x="285" y="358" fill="#333" font-size="11">1. get_db_description() → tables</text>
  <text x="285" y="376" fill="#333" font-size="11">2. get_db_schema() → columns</text>
  <text x="285" y="394" fill="#333" font-size="11">3. get_db_query_guidelines()</text>
  <text x="285" y="412" fill="#333" font-size="11">4. Generate SQL + value resolution</text>
  <text x="285" y="430" fill="#333" font-size="11">5. execute_db_query() → DuckDB</text>
  <text x="390" y="446" text-anchor="middle" fill="#888" font-size="9">rag=false, mcp=true</text>

  <!-- Path C: RAG -->
  <line x1="470" y1="215" x2="660" y2="260" stroke="#1565c0" stroke-width="1.5" marker-end="url(#a)"/>
  <text x="590" y="238" fill="#1565c0" font-size="10" font-weight="bold">Rule C</text>

  <rect x="570" y="262" width="180" height="40" rx="6" fill="#bbdefb" stroke="#1565c0" stroke-width="1.5"/>
  <text x="660" y="287" text-anchor="middle" font-weight="bold" fill="#0d47a1">ask_vector_db()</text>

  <line x1="660" y1="302" x2="660" y2="318" stroke="#555" stroke-width="1.2" marker-end="url(#a)"/>

  <rect x="570" y="320" width="180" height="95" rx="6" fill="#e3f2fd" stroke="#1565c0" stroke-width="1"/>
  <text x="585" y="340" font-weight="bold" fill="#0d47a1" font-size="11">ChromaDB RAG:</text>
  <text x="590" y="358" fill="#333" font-size="11">1. Embed query</text>
  <text x="590" y="376" fill="#333" font-size="11">2. Similarity search (k=4)</text>
  <text x="590" y="394" fill="#333" font-size="11">3. Return chunks + refs</text>
  <text x="660" y="412" text-anchor="middle" fill="#888" font-size="9">rag=true, mcp=false</text>

  <!-- Response -->
  <rect x="240" y="475" width="300" height="35" rx="6" fill="#e8eaf6" stroke="#3f51b5" stroke-width="1.5"/>
  <text x="390" y="498" text-anchor="middle" font-weight="bold" fill="#283593">JSON Response (answer + refs + log)</text>

  <line x1="120" y1="317" x2="340" y2="473" stroke="#555" stroke-width="1" stroke-dasharray="4,3" marker-end="url(#a)"/>
  <line x1="390" y1="450" x2="390" y2="473" stroke="#555" stroke-width="1" stroke-dasharray="4,3" marker-end="url(#a)"/>
  <line x1="660" y1="415" x2="440" y2="473" stroke="#555" stroke-width="1" stroke-dasharray="4,3" marker-end="url(#a)"/>
</svg>
